<svg xmlns="http://www.w3.org/2000/svg" width="116" height="60" viewBox="0 0 116 60">
  <path fill="#FFF" fill-rule="evenodd" d="M108.926275,3.50936775 C108.926275,1.57581932 110.511608,0 112.463137,0 C114.414667,0 116,1.57581932 116,3.50936775 L116,27.1806192 C116,36.5596876 108.303059,44.1908643 98.8479216,44.1908643 C94.9630588,44.1908643 91.1487059,42.8607007 88.1099608,40.4437652 C87.0523137,39.5947246 86.0890588,38.5713477 85.2213333,37.405332 C84.3570196,38.5645554 83.3960392,39.5879323 82.3361176,40.4256523 C79.3041961,42.8414558 75.4978039,44.1704873 71.6118039,44.1704873 C66.941098,44.1704873 63.0596471,42.6161771 60.0720784,39.5460463 C57.3801961,36.7860984 55.5116863,32.844286 54.529098,27.8292862 C53.7876078,24.0867153 52.5207059,21.3018622 50.7602353,19.5505745 C49.179451,17.9656988 47.033451,17.1596762 44.3802353,17.1596762 C38.8236078,17.1596762 34.3041569,21.6448746 34.3041569,27.1591102 C34.3041569,32.6722137 38.8236078,37.1528839 44.3802353,37.1528839 C46.7138824,37.1528839 48.9929412,36.3412011 50.8057255,34.8593423 C51.5335686,34.2819947 52.441098,34.0125658 53.3565882,34.100866 C54.3039216,34.1914304 55.1557255,34.6397238 55.7561961,35.3687666 C56.3521176,36.088753 56.6352941,36.9989245 56.5465882,37.9362654 C56.4556078,38.8668138 56.0029804,39.7022698 55.2705882,40.3101828 C52.2136471,42.7973057 48.3469804,44.1704873 44.3802353,44.1704873 C40.7182745,44.1704873 37.1381961,42.9625856 34.1676863,40.7630045 C33.7105098,45.5334805 31.5997647,50.0073584 28.1118039,53.4623875 C24.3247451,57.2151469 19.1900392,59.5335937 13.6368235,59.9920756 L13.4093725,60 C11.4692157,59.9886795 9.89184314,58.4038037 9.88843137,56.4566706 C9.90776471,54.6193468 11.372549,53.0944699 13.1921569,52.9948492 C21.3258039,52.2522217 27.2258824,46.2908247 27.2258824,38.8215317 L27.2258824,27.1613743 C27.2258824,21.6460067 22.7109804,17.1608083 17.1498039,17.1608083 C11.5943137,17.1608083 7.076,21.6460067 7.076,27.1602423 C7.076,32.6733458 11.5943137,37.154016 17.1498039,37.154016 C18.3018431,37.154016 19.4243137,36.9706232 20.4774118,36.6015736 C21.3610588,36.2823343 22.3197647,36.3298806 23.1931765,36.7260995 C24.0461176,37.1291108 24.6909412,37.8468331 25.0196078,38.7524764 C25.3243922,39.6388747 25.2743529,40.586404 24.8683529,41.4173317 C24.4589412,42.2663723 23.7424706,42.9003226 22.8508627,43.2093734 C21.0278431,43.8467199 19.1092941,44.1716194 17.1498039,44.1716194 C7.69580392,44.1727515 0,36.5404426 0,27.1602423 C0,17.7777778 7.69580392,10.1432048 17.1532157,10.1432048 C21.0358039,10.1432048 24.8478824,11.4756325 27.8820784,13.8925681 C28.942,14.7348163 29.9029804,15.7559291 30.7684314,16.9264731 C31.6327451,15.7627215 32.5994118,14.7348163 33.6616078,13.8891719 C36.6946667,11.4745005 40.5044706,10.1420728 44.3825098,10.1420728 C49.0543529,10.1420728 52.9346667,11.7009113 55.9233725,14.7608536 C58.6163922,17.5230656 60.4792157,21.4660101 61.4731765,26.4866701 C62.2089804,30.2247127 63.4713333,33.012962 65.2261176,34.7597215 C66.8182745,36.3468614 68.9699608,37.1506198 71.6106667,37.1506198 C77.1695686,37.1506198 81.6867451,32.6676855 81.6867451,27.1579782 C81.6867451,21.6448746 77.1695686,17.1596762 71.6106667,17.1596762 C69.2792941,17.1596762 67.0070588,17.9656988 65.2101961,19.435105 C63.7158431,20.6509311 61.4856863,20.4335767 60.2244706,18.9437935 C59.0019216,17.4494821 59.2214118,15.2385804 60.721451,14.0125658 C63.7806667,11.5175185 67.6473333,10.1443369 71.6095294,10.1443369 C75.4989412,10.1443369 79.3087451,11.4767646 82.3383922,13.8937001 C83.399451,14.7359484 84.3649804,15.7638535 85.2338431,16.9321334 C86.0981569,15.7695138 87.0648235,14.7472689 88.1224706,13.9027566 C91.1555294,11.4937454 94.9687451,10.1613177 98.8445098,10.1613177 C100.797176,10.1613177 102.720275,10.4896134 104.564902,11.1348842 C105.448549,11.4518594 106.163882,12.0903379 106.566471,12.9303221 C106.967922,13.7748344 107.021373,14.7257599 106.706353,15.5997057 C106.393608,16.4883681 105.753333,17.2015622 104.903804,17.6034414 C104.050863,18.0075848 103.089882,18.0585272 102.190314,17.7472123 C101.121294,17.3713704 99.9976863,17.1811853 98.8445098,17.1811853 C93.2833333,17.1811853 88.7627451,21.6663837 88.7627451,27.1817513 C88.7627451,32.6925907 93.2844706,37.1777891 98.8445098,37.1777891 C104.397725,37.1777891 108.920588,32.6925907 108.920588,27.1817513 L108.920588,3.50936775"/>
</svg>
