<svg xmlns="http://www.w3.org/2000/svg" width="75" height="76" viewBox="0 0 75 76">
  <g fill="none">
    <path fill="#FFF" d="M37.4,68 C53.6371716,68 66.8,54.5685425 66.8,38 C66.8,21.4314575 53.6371716,8 37.4,8 C21.1628284,8 8,21.4314575 8,38 C8,54.5685425 21.1628284,68 37.4,68 Z M37.4,76 C16.7079713,76 0,58.9510497 0,38 C0,17.0489503 16.7079713,0 37.4,0 C58.0920287,0 74.8,17.0489503 74.8,38 C74.8,58.9510497 58.0920287,76 37.4,76 Z"/>
    <ellipse cx="37.4" cy="38" fill="#EE8B49" rx="29.4" ry="30"/>
    <g fill="#FFF" transform="translate(32 19)">
      <polygon points="0 0 11 0 10 26 1 26"/>
      <rect width="9" height="9" x="1" y="30"/>
    </g>
  </g>
</svg>
