<svg xmlns="http://www.w3.org/2000/svg" width="76" height="76" viewBox="0 0 76 76">
  <g fill="none">
    <path fill="#FFF" d="M38,68 C54.5685425,68 68,54.5685425 68,38 C68,21.4314575 54.5685425,8 38,8 C21.4314575,8 8,21.4314575 8,38 C8,54.5685425 21.4314575,68 38,68 Z M38,76 C17.0131795,76 0,58.9868205 0,38 C0,17.0131795 17.0131795,0 38,0 C58.9868205,0 76,17.0131795 76,38 C76,58.9868205 58.9868205,76 38,76 Z"/>
    <circle cx="38" cy="38" r="30" fill="#1FAC0E"/>
    <path fill="#FFF" d="M40.6230232,50.7705627 L29.602615,50.7705627 L29.602615,43.5705627 L40.6230232,43.5705627 L40.6230232,20.7705627 L47.969962,20.7705627 L47.969962,50.7705627 L40.6230232,50.7705627 Z" transform="rotate(45 38.786 35.77)"/>
  </g>
</svg>
