<svg xmlns="http://www.w3.org/2000/svg" width="202" height="202" viewBox="0 0 202 202">
  <g fill="none">
    <circle cx="101" cy="101" r="101" fill="#EE495B"/>
    <g fill="#FFF" transform="rotate(-45 107.048 30.027)">
      <path d="M53.5,88.1481481 C72.6356438,88.1481481 88.1481481,72.6356438 88.1481481,53.5 C88.1481481,34.3643562 72.6356438,18.8518519 53.5,18.8518519 C34.3643562,18.8518519 18.8518519,34.3643562 18.8518519,53.5 C18.8518519,72.6356438 34.3643562,88.1481481 53.5,88.1481481 Z M53.5,107 C23.9527659,107 0,83.0472341 0,53.5 C0,23.9527659 23.9527659,0 53.5,0 C83.0472341,0 107,23.9527659 107,53.5 C107,83.0472341 83.0472341,107 53.5,107 Z"/>
      <rect width="16" height="69" x="45.197" y="92.252" rx="3"/>
    </g>
  </g>
</svg>
