<svg xmlns="http://www.w3.org/2000/svg" width="202" height="202" viewBox="0 0 202 202">
  <g fill="none">
    <circle cx="101" cy="101" r="101" fill="#EE495B"/>
    <g fill="#FFF" transform="translate(48 48)">
      <path d="M43.9441611,-10.8205448 L61.4147493,-10.8205448 C62.6655118,-10.8205448 63.6794552,-9.01136818 63.6794552,-6.77963571 L63.6794552,112.138546 C63.6794552,114.370279 62.6655118,116.179455 61.4147493,116.179455 L43.9441611,116.179455 C42.6933986,116.179455 41.6794552,114.370279 41.6794552,112.138546 L41.6794552,-6.77963571 C41.6794552,-9.01136818 42.6933986,-10.8205448 43.9441611,-10.8205448 Z" transform="rotate(45 52.68 52.68)"/>
      <path d="M43.9441611,-10.8205448 L61.4147493,-10.8205448 C62.6655118,-10.8205448 63.6794552,-9.01136818 63.6794552,-6.77963571 L63.6794552,112.138546 C63.6794552,114.370279 62.6655118,116.179455 61.4147493,116.179455 L43.9441611,116.179455 C42.6933986,116.179455 41.6794552,114.370279 41.6794552,112.138546 L41.6794552,-6.77963571 C41.6794552,-9.01136818 42.6933986,-10.8205448 43.9441611,-10.8205448 Z" transform="rotate(-45 52.68 52.68)"/>
    </g>
  </g>
</svg>
